<mxfile host="Electron" modified="2023-09-18T13:09:08.364Z" agent="Mozilla/5.0 (Macintosh; Intel Mac OS X 10_15_7) AppleWebKit/537.36 (KHTML, like Gecko) draw.io/21.7.5 Chrome/114.0.5735.289 Electron/25.8.1 Safari/537.36" etag="ACy1Xf-nSVolydGOYy7P" version="21.7.5" type="device" pages="2">
  <diagram name="kafka architecture" id="UmuNCRTXV9C69M1ndm7b">
    <mxGraphModel dx="954" dy="727" grid="1" gridSize="10" guides="1" tooltips="1" connect="1" arrows="1" fold="1" page="1" pageScale="1" pageWidth="827" pageHeight="1169" math="0" shadow="0">
      <root>
        <mxCell id="0" />
        <mxCell id="1" parent="0" />
        <mxCell id="ifwl0EtauhX26m2-DOp--373" value="&lt;font style=&quot;font-size: 22px;&quot;&gt;Spring Boot Kafka Event-Driven Microservices Architecture with Multiple Consumers&lt;/font&gt;" style="text;html=1;strokeColor=none;fillColor=none;align=center;verticalAlign=middle;whiteSpace=wrap;rounded=0;" vertex="1" parent="1">
          <mxGeometry x="80" y="60" width="640" height="60" as="geometry" />
        </mxCell>
        <mxCell id="ifwl0EtauhX26m2-DOp--395" style="edgeStyle=orthogonalEdgeStyle;rounded=0;orthogonalLoop=1;jettySize=auto;html=1;" edge="1" parent="1" source="ifwl0EtauhX26m2-DOp--374" target="ifwl0EtauhX26m2-DOp--378">
          <mxGeometry relative="1" as="geometry" />
        </mxCell>
        <mxCell id="ifwl0EtauhX26m2-DOp--374" value="Order Service" style="ellipse;whiteSpace=wrap;html=1;fillColor=#a0522d;fontColor=#ffffff;strokeColor=#6D1F00;" vertex="1" parent="1">
          <mxGeometry x="20" y="240" width="120" height="80" as="geometry" />
        </mxCell>
        <mxCell id="ifwl0EtauhX26m2-DOp--377" style="edgeStyle=orthogonalEdgeStyle;rounded=0;orthogonalLoop=1;jettySize=auto;html=1;entryX=0.5;entryY=1;entryDx=0;entryDy=0;" edge="1" parent="1" source="ifwl0EtauhX26m2-DOp--376" target="ifwl0EtauhX26m2-DOp--374">
          <mxGeometry relative="1" as="geometry" />
        </mxCell>
        <mxCell id="ifwl0EtauhX26m2-DOp--376" value="Microservice 1" style="rounded=1;whiteSpace=wrap;html=1;fillColor=#a0522d;fontColor=#ffffff;strokeColor=#6D1F00;" vertex="1" parent="1">
          <mxGeometry x="20" y="370" width="120" height="50" as="geometry" />
        </mxCell>
        <mxCell id="ifwl0EtauhX26m2-DOp--385" style="edgeStyle=orthogonalEdgeStyle;rounded=0;orthogonalLoop=1;jettySize=auto;html=1;entryX=-0.025;entryY=0.613;entryDx=0;entryDy=0;entryPerimeter=0;" edge="1" parent="1" source="ifwl0EtauhX26m2-DOp--378" target="ifwl0EtauhX26m2-DOp--381">
          <mxGeometry relative="1" as="geometry" />
        </mxCell>
        <mxCell id="ifwl0EtauhX26m2-DOp--386" style="edgeStyle=orthogonalEdgeStyle;rounded=0;orthogonalLoop=1;jettySize=auto;html=1;entryX=0;entryY=0.625;entryDx=0;entryDy=0;entryPerimeter=0;" edge="1" parent="1" source="ifwl0EtauhX26m2-DOp--378" target="ifwl0EtauhX26m2-DOp--384">
          <mxGeometry relative="1" as="geometry" />
        </mxCell>
        <mxCell id="ifwl0EtauhX26m2-DOp--378" value="" style="rounded=0;whiteSpace=wrap;html=1;fillColor=#e3c800;fontColor=#000000;strokeColor=#B09500;" vertex="1" parent="1">
          <mxGeometry x="220" y="210" width="200" height="140" as="geometry" />
        </mxCell>
        <mxCell id="ifwl0EtauhX26m2-DOp--379" value="Topic" style="rounded=1;whiteSpace=wrap;html=1;fillColor=#647687;fontColor=#ffffff;strokeColor=#314354;" vertex="1" parent="1">
          <mxGeometry x="250" y="280" width="120" height="60" as="geometry" />
        </mxCell>
        <mxCell id="ifwl0EtauhX26m2-DOp--380" value="&lt;font style=&quot;font-size: 16px;&quot;&gt;Kafka Broker&lt;/font&gt;" style="text;html=1;strokeColor=none;fillColor=none;align=center;verticalAlign=middle;whiteSpace=wrap;rounded=0;" vertex="1" parent="1">
          <mxGeometry x="262" y="230" width="96" height="30" as="geometry" />
        </mxCell>
        <mxCell id="ifwl0EtauhX26m2-DOp--387" style="edgeStyle=orthogonalEdgeStyle;rounded=0;orthogonalLoop=1;jettySize=auto;html=1;exitX=1;exitY=0.5;exitDx=0;exitDy=0;entryX=0;entryY=0.5;entryDx=0;entryDy=0;" edge="1" parent="1" source="ifwl0EtauhX26m2-DOp--381" target="ifwl0EtauhX26m2-DOp--383">
          <mxGeometry relative="1" as="geometry" />
        </mxCell>
        <mxCell id="ifwl0EtauhX26m2-DOp--381" value="Stock Service" style="ellipse;whiteSpace=wrap;html=1;fillColor=#6d8764;fontColor=#ffffff;strokeColor=#3A5431;" vertex="1" parent="1">
          <mxGeometry x="510" y="200" width="120" height="80" as="geometry" />
        </mxCell>
        <mxCell id="ifwl0EtauhX26m2-DOp--382" value="Consumer Group 2" style="ellipse;whiteSpace=wrap;html=1;fillColor=#6d8764;fontColor=#ffffff;strokeColor=#3A5431;" vertex="1" parent="1">
          <mxGeometry x="670" y="310" width="120" height="80" as="geometry" />
        </mxCell>
        <mxCell id="ifwl0EtauhX26m2-DOp--383" value="Consumer Group 1" style="ellipse;whiteSpace=wrap;html=1;fillColor=#6d8764;fontColor=#ffffff;strokeColor=#3A5431;" vertex="1" parent="1">
          <mxGeometry x="670" y="190" width="120" height="80" as="geometry" />
        </mxCell>
        <mxCell id="ifwl0EtauhX26m2-DOp--388" style="edgeStyle=orthogonalEdgeStyle;rounded=0;orthogonalLoop=1;jettySize=auto;html=1;entryX=0;entryY=0.5;entryDx=0;entryDy=0;" edge="1" parent="1" source="ifwl0EtauhX26m2-DOp--384" target="ifwl0EtauhX26m2-DOp--382">
          <mxGeometry relative="1" as="geometry" />
        </mxCell>
        <mxCell id="ifwl0EtauhX26m2-DOp--384" value="Email Service" style="ellipse;whiteSpace=wrap;html=1;fillColor=#6d8764;fontColor=#ffffff;strokeColor=#3A5431;" vertex="1" parent="1">
          <mxGeometry x="520" y="320" width="120" height="80" as="geometry" />
        </mxCell>
        <mxCell id="ifwl0EtauhX26m2-DOp--393" style="edgeStyle=orthogonalEdgeStyle;rounded=0;orthogonalLoop=1;jettySize=auto;html=1;" edge="1" parent="1" source="ifwl0EtauhX26m2-DOp--389" target="ifwl0EtauhX26m2-DOp--381">
          <mxGeometry relative="1" as="geometry" />
        </mxCell>
        <mxCell id="ifwl0EtauhX26m2-DOp--389" value="Microservice 2" style="rounded=1;whiteSpace=wrap;html=1;fillColor=#a0522d;fontColor=#ffffff;strokeColor=#6D1F00;" vertex="1" parent="1">
          <mxGeometry x="510" y="120" width="120" height="50" as="geometry" />
        </mxCell>
        <mxCell id="ifwl0EtauhX26m2-DOp--394" style="edgeStyle=orthogonalEdgeStyle;rounded=0;orthogonalLoop=1;jettySize=auto;html=1;entryX=0.5;entryY=1;entryDx=0;entryDy=0;" edge="1" parent="1" source="ifwl0EtauhX26m2-DOp--390" target="ifwl0EtauhX26m2-DOp--384">
          <mxGeometry relative="1" as="geometry" />
        </mxCell>
        <mxCell id="ifwl0EtauhX26m2-DOp--390" value="Microservice 3" style="rounded=1;whiteSpace=wrap;html=1;fillColor=#a0522d;fontColor=#ffffff;strokeColor=#6D1F00;" vertex="1" parent="1">
          <mxGeometry x="520" y="440" width="120" height="50" as="geometry" />
        </mxCell>
        <mxCell id="ifwl0EtauhX26m2-DOp--398" value="&lt;font style=&quot;font-size: 13px;&quot;&gt;OrderEvent&lt;/font&gt;" style="text;html=1;strokeColor=none;fillColor=none;align=center;verticalAlign=middle;whiteSpace=wrap;rounded=0;" vertex="1" parent="1">
          <mxGeometry x="130" y="250" width="96" height="30" as="geometry" />
        </mxCell>
        <mxCell id="ifwl0EtauhX26m2-DOp--400" value="&lt;font style=&quot;font-size: 13px;&quot;&gt;OrderEvent&lt;/font&gt;" style="text;html=1;strokeColor=none;fillColor=none;align=center;verticalAlign=middle;whiteSpace=wrap;rounded=0;" vertex="1" parent="1">
          <mxGeometry x="414" y="190" width="96" height="30" as="geometry" />
        </mxCell>
        <mxCell id="ifwl0EtauhX26m2-DOp--401" value="&lt;font style=&quot;font-size: 13px;&quot;&gt;OrderEvent&lt;/font&gt;" style="text;html=1;strokeColor=none;fillColor=none;align=center;verticalAlign=middle;whiteSpace=wrap;rounded=0;" vertex="1" parent="1">
          <mxGeometry x="414" y="380" width="96" height="30" as="geometry" />
        </mxCell>
      </root>
    </mxGraphModel>
  </diagram>
  <diagram name="rabbitmq" id="Z3ew14B0-u1KSxLlUjOi">
    <mxGraphModel dx="954" dy="727" grid="1" gridSize="10" guides="1" tooltips="1" connect="1" arrows="1" fold="1" page="1" pageScale="1" pageWidth="827" pageHeight="1169" math="0" shadow="0">
      <root>
        <mxCell id="gN87uwsulRMDNThf3h8A-0" />
        <mxCell id="gN87uwsulRMDNThf3h8A-1" parent="gN87uwsulRMDNThf3h8A-0" />
        <mxCell id="gN87uwsulRMDNThf3h8A-2" value="&lt;font style=&quot;font-size: 22px;&quot;&gt;Spring Boot RabbitMQ Event-Driven Microservices Architecture with Multiple Queues&lt;/font&gt;" style="text;html=1;strokeColor=none;fillColor=none;align=center;verticalAlign=middle;whiteSpace=wrap;rounded=0;" vertex="1" parent="gN87uwsulRMDNThf3h8A-1">
          <mxGeometry x="80" y="60" width="640" height="60" as="geometry" />
        </mxCell>
        <mxCell id="gN87uwsulRMDNThf3h8A-5" style="edgeStyle=orthogonalEdgeStyle;rounded=0;orthogonalLoop=1;jettySize=auto;html=1;entryX=0.5;entryY=1;entryDx=0;entryDy=0;" edge="1" parent="gN87uwsulRMDNThf3h8A-1" source="gN87uwsulRMDNThf3h8A-6">
          <mxGeometry relative="1" as="geometry">
            <mxPoint x="80" y="320" as="targetPoint" />
          </mxGeometry>
        </mxCell>
        <mxCell id="gN87uwsulRMDNThf3h8A-6" value="Microservice 1" style="rounded=1;whiteSpace=wrap;html=1;fillColor=#a0522d;fontColor=#ffffff;strokeColor=#6D1F00;" vertex="1" parent="gN87uwsulRMDNThf3h8A-1">
          <mxGeometry x="20" y="370" width="120" height="50" as="geometry" />
        </mxCell>
        <mxCell id="gN87uwsulRMDNThf3h8A-12" style="edgeStyle=orthogonalEdgeStyle;rounded=0;orthogonalLoop=1;jettySize=auto;html=1;exitX=1;exitY=0.5;exitDx=0;exitDy=0;entryX=0;entryY=0.5;entryDx=0;entryDy=0;" edge="1" parent="gN87uwsulRMDNThf3h8A-1" source="gN87uwsulRMDNThf3h8A-13" target="gN87uwsulRMDNThf3h8A-15">
          <mxGeometry relative="1" as="geometry" />
        </mxCell>
        <mxCell id="gN87uwsulRMDNThf3h8A-13" value="Stock Service" style="ellipse;whiteSpace=wrap;html=1;fillColor=#6d8764;fontColor=#ffffff;strokeColor=#3A5431;" vertex="1" parent="gN87uwsulRMDNThf3h8A-1">
          <mxGeometry x="620" y="240" width="120" height="80" as="geometry" />
        </mxCell>
        <mxCell id="gN87uwsulRMDNThf3h8A-14" value="Consumer Group 2" style="ellipse;whiteSpace=wrap;html=1;fillColor=#6d8764;fontColor=#ffffff;strokeColor=#3A5431;" vertex="1" parent="gN87uwsulRMDNThf3h8A-1">
          <mxGeometry x="770" y="330" width="120" height="80" as="geometry" />
        </mxCell>
        <mxCell id="gN87uwsulRMDNThf3h8A-15" value="Consumer Group 1" style="ellipse;whiteSpace=wrap;html=1;fillColor=#6d8764;fontColor=#ffffff;strokeColor=#3A5431;" vertex="1" parent="gN87uwsulRMDNThf3h8A-1">
          <mxGeometry x="770" y="190" width="120" height="80" as="geometry" />
        </mxCell>
        <mxCell id="gN87uwsulRMDNThf3h8A-16" style="edgeStyle=orthogonalEdgeStyle;rounded=0;orthogonalLoop=1;jettySize=auto;html=1;entryX=0;entryY=0.5;entryDx=0;entryDy=0;" edge="1" parent="gN87uwsulRMDNThf3h8A-1" source="gN87uwsulRMDNThf3h8A-17" target="gN87uwsulRMDNThf3h8A-14">
          <mxGeometry relative="1" as="geometry" />
        </mxCell>
        <mxCell id="gN87uwsulRMDNThf3h8A-17" value="Email Service" style="ellipse;whiteSpace=wrap;html=1;fillColor=#6d8764;fontColor=#ffffff;strokeColor=#3A5431;" vertex="1" parent="gN87uwsulRMDNThf3h8A-1">
          <mxGeometry x="620" y="380" width="120" height="80" as="geometry" />
        </mxCell>
        <mxCell id="gN87uwsulRMDNThf3h8A-18" style="edgeStyle=orthogonalEdgeStyle;rounded=0;orthogonalLoop=1;jettySize=auto;html=1;" edge="1" parent="gN87uwsulRMDNThf3h8A-1" source="gN87uwsulRMDNThf3h8A-19" target="gN87uwsulRMDNThf3h8A-13">
          <mxGeometry relative="1" as="geometry" />
        </mxCell>
        <mxCell id="gN87uwsulRMDNThf3h8A-19" value="Microservice 2" style="rounded=1;whiteSpace=wrap;html=1;fillColor=#a0522d;fontColor=#ffffff;strokeColor=#6D1F00;" vertex="1" parent="gN87uwsulRMDNThf3h8A-1">
          <mxGeometry x="620" y="130" width="120" height="50" as="geometry" />
        </mxCell>
        <mxCell id="gN87uwsulRMDNThf3h8A-20" style="edgeStyle=orthogonalEdgeStyle;rounded=0;orthogonalLoop=1;jettySize=auto;html=1;entryX=0.5;entryY=1;entryDx=0;entryDy=0;" edge="1" parent="gN87uwsulRMDNThf3h8A-1" source="gN87uwsulRMDNThf3h8A-21" target="gN87uwsulRMDNThf3h8A-17">
          <mxGeometry relative="1" as="geometry" />
        </mxCell>
        <mxCell id="gN87uwsulRMDNThf3h8A-21" value="Microservice 3" style="rounded=1;whiteSpace=wrap;html=1;fillColor=#a0522d;fontColor=#ffffff;strokeColor=#6D1F00;" vertex="1" parent="gN87uwsulRMDNThf3h8A-1">
          <mxGeometry x="620" y="510" width="120" height="50" as="geometry" />
        </mxCell>
        <mxCell id="471yqUzsdjmonOdd1ZFZ-2" value="" style="whiteSpace=wrap;html=1;aspect=fixed;fillColor=#f5f5f5;strokeColor=#666666;gradientColor=#b3b3b3;" vertex="1" parent="gN87uwsulRMDNThf3h8A-1">
          <mxGeometry x="200" y="180" width="380" height="380" as="geometry" />
        </mxCell>
        <mxCell id="471yqUzsdjmonOdd1ZFZ-9" style="edgeStyle=orthogonalEdgeStyle;rounded=0;orthogonalLoop=1;jettySize=auto;html=1;entryX=0.313;entryY=0;entryDx=0;entryDy=0;entryPerimeter=0;exitX=0.5;exitY=1;exitDx=0;exitDy=0;strokeWidth=4;fillColor=#f5f5f5;gradientColor=#b3b3b3;strokeColor=#666666;" edge="1" parent="gN87uwsulRMDNThf3h8A-1" source="471yqUzsdjmonOdd1ZFZ-3" target="471yqUzsdjmonOdd1ZFZ-7">
          <mxGeometry relative="1" as="geometry" />
        </mxCell>
        <mxCell id="471yqUzsdjmonOdd1ZFZ-10" style="edgeStyle=orthogonalEdgeStyle;rounded=0;orthogonalLoop=1;jettySize=auto;html=1;strokeWidth=5;fillColor=#f5f5f5;gradientColor=#b3b3b3;strokeColor=#666666;" edge="1" parent="gN87uwsulRMDNThf3h8A-1" source="471yqUzsdjmonOdd1ZFZ-3" target="471yqUzsdjmonOdd1ZFZ-4">
          <mxGeometry relative="1" as="geometry" />
        </mxCell>
        <mxCell id="471yqUzsdjmonOdd1ZFZ-3" value="Exchange" style="rhombus;whiteSpace=wrap;html=1;fillColor=#f0a30a;strokeColor=#BD7000;fontColor=#000000;" vertex="1" parent="gN87uwsulRMDNThf3h8A-1">
          <mxGeometry x="220" y="240" width="150" height="80" as="geometry" />
        </mxCell>
        <mxCell id="471yqUzsdjmonOdd1ZFZ-12" style="edgeStyle=orthogonalEdgeStyle;rounded=0;orthogonalLoop=1;jettySize=auto;html=1;exitX=0.5;exitY=1;exitDx=0;exitDy=0;exitPerimeter=0;entryX=0;entryY=0.5;entryDx=0;entryDy=0;fillColor=#f5f5f5;gradientColor=#b3b3b3;strokeColor=#666666;strokeWidth=5;" edge="1" parent="gN87uwsulRMDNThf3h8A-1" source="471yqUzsdjmonOdd1ZFZ-4" target="gN87uwsulRMDNThf3h8A-13">
          <mxGeometry relative="1" as="geometry" />
        </mxCell>
        <mxCell id="471yqUzsdjmonOdd1ZFZ-4" value="&lt;font style=&quot;font-size: 15px;&quot;&gt;Order Queue&lt;/font&gt;" style="shape=cylinder3;whiteSpace=wrap;html=1;boundedLbl=1;backgroundOutline=1;size=15;rotation=-90;fillColor=#ffcd28;gradientColor=#ffa500;strokeColor=#d79b00;" vertex="1" parent="gN87uwsulRMDNThf3h8A-1">
          <mxGeometry x="440" y="225" width="80" height="110" as="geometry" />
        </mxCell>
        <mxCell id="471yqUzsdjmonOdd1ZFZ-13" style="edgeStyle=orthogonalEdgeStyle;rounded=0;orthogonalLoop=1;jettySize=auto;html=1;exitX=0.5;exitY=1;exitDx=0;exitDy=0;exitPerimeter=0;strokeWidth=4;fillColor=#f5f5f5;gradientColor=#b3b3b3;strokeColor=#666666;" edge="1" parent="gN87uwsulRMDNThf3h8A-1" source="471yqUzsdjmonOdd1ZFZ-7" target="gN87uwsulRMDNThf3h8A-17">
          <mxGeometry relative="1" as="geometry" />
        </mxCell>
        <mxCell id="471yqUzsdjmonOdd1ZFZ-7" value="&lt;font style=&quot;font-size: 15px;&quot;&gt;Order Queue&lt;/font&gt;" style="shape=cylinder3;whiteSpace=wrap;html=1;boundedLbl=1;backgroundOutline=1;size=15;rotation=-90;fillColor=#ffcd28;gradientColor=#ffa500;strokeColor=#d79b00;" vertex="1" parent="gN87uwsulRMDNThf3h8A-1">
          <mxGeometry x="440" y="365" width="80" height="110" as="geometry" />
        </mxCell>
        <mxCell id="471yqUzsdjmonOdd1ZFZ-14" value="RabbitMQ" style="rounded=1;whiteSpace=wrap;html=1;fillColor=#a0522d;fontColor=#ffffff;strokeColor=#6D1F00;" vertex="1" parent="gN87uwsulRMDNThf3h8A-1">
          <mxGeometry x="320" y="170" width="120" height="60" as="geometry" />
        </mxCell>
        <mxCell id="471yqUzsdjmonOdd1ZFZ-17" style="edgeStyle=orthogonalEdgeStyle;rounded=0;orthogonalLoop=1;jettySize=auto;html=1;strokeWidth=4;fillColor=#f5f5f5;strokeColor=#666666;" edge="1" parent="gN87uwsulRMDNThf3h8A-1" source="471yqUzsdjmonOdd1ZFZ-16" target="471yqUzsdjmonOdd1ZFZ-3">
          <mxGeometry relative="1" as="geometry" />
        </mxCell>
        <mxCell id="471yqUzsdjmonOdd1ZFZ-16" value="Order Service" style="ellipse;whiteSpace=wrap;html=1;fillColor=#a0522d;fontColor=#ffffff;strokeColor=#6D1F00;" vertex="1" parent="gN87uwsulRMDNThf3h8A-1">
          <mxGeometry x="20" y="240" width="120" height="80" as="geometry" />
        </mxCell>
      </root>
    </mxGraphModel>
  </diagram>
</mxfile>
